<svg width="115.7" height="49" xmlns="http://www.w3.org/2000/svg" style="animation-delay: 0s; animation-direction: normal; animation-duration: 0s; animation-fill-mode: none; animation-iteration-count: 1; animation-name: none; animation-play-state: running; animation-timing-function: ease; background-attachment: scroll; background-blend-mode: normal; background-clip: border-box; background-color: rgba(0, 0, 0, 0); background-image: none; background-origin: padding-box; background-position: 0% 0%; background-repeat: repeat; background-size: auto; border-bottom-color: rgb(0, 0, 0); border-bottom-left-radius: 0px; border-bottom-right-radius: 0px; border-bottom-style: none; border-bottom-width: 0px; border-collapse: separate; border-image-outset: 0px; border-image-repeat: stretch; border-image-slice: 100%; border-image-source: none; border-image-width: 1; border-left-color: rgb(0, 0, 0); border-left-style: none; border-left-width: 0px; border-right-color: rgb(0, 0, 0); border-right-style: none; border-right-width: 0px; border-top-color: rgb(0, 0, 0); border-top-left-radius: 0px; border-top-right-radius: 0px; border-top-style: none; border-top-width: 0px; bottom: auto; box-shadow: none; box-sizing: content-box; break-after: auto; break-before: auto; break-inside: auto; caption-side: top; clear: none; clip: auto; color: rgb(0, 0, 0); content: normal; cursor: auto; direction: ltr; display: block; empty-cells: show; float: none; font-family: &quot;Times New Roman&quot;; font-kerning: auto; font-size: 16px; font-stretch: 100%; font-style: normal; font-variant: normal; font-variant-ligatures: normal; font-variant-caps: normal; font-variant-numeric: normal; font-variant-east-asian: normal; font-weight: 400; height: 49px; image-rendering: auto; isolation: auto; justify-items: normal; justify-self: auto; left: auto; letter-spacing: normal; line-height: normal; list-style-image: none; list-style-position: outside; list-style-type: disc; margin-bottom: 0px; margin-left: 0px; margin-right: 0px; margin-top: 0px; max-height: none; max-width: none; min-height: 0px; min-width: 0px; mix-blend-mode: normal; object-fit: fill; object-position: 50% 50%; offset-distance: 0px; offset-path: none; offset-rotate: auto 0deg; opacity: 1; orphans: 2; outline-color: rgb(0, 0, 0); outline-offset: 0px; outline-style: none; outline-width: 0px; overflow-anchor: auto; overflow-wrap: normal; overflow-x: visible; overflow-y: visible; padding-bottom: 0px; padding-left: 0px; padding-right: 0px; padding-top: 0px; pointer-events: auto; position: static; resize: none; right: auto; scroll-behavior: auto; speak: normal; table-layout: auto; tab-size: 8; text-align: start; text-align-last: auto; text-decoration: none solid rgb(0, 0, 0); text-decoration-line: none; text-decoration-style: solid; text-decoration-color: rgb(0, 0, 0); text-decoration-skip-ink: auto; text-underline-position: auto; text-indent: 0px; text-rendering: auto; text-shadow: none; text-size-adjust: auto; text-overflow: clip; text-transform: none; top: auto; touch-action: auto; transition-delay: 0s; transition-duration: 0s; transition-property: all; transition-timing-function: ease; unicode-bidi: normal; vertical-align: baseline; visibility: visible; white-space: normal; widows: 2; width: 115.688px; will-change: auto; word-break: normal; word-spacing: 0px; z-index: auto; zoom: 1; -webkit-appearance: none; backface-visibility: visible; -webkit-border-horizontal-spacing: 0px; -webkit-border-image: none; -webkit-border-vertical-spacing: 0px; -webkit-box-align: stretch; -webkit-box-decoration-break: slice; -webkit-box-direction: normal; -webkit-box-flex: 0; -webkit-box-ordinal-group: 1; -webkit-box-orient: horizontal; -webkit-box-pack: start; -webkit-box-reflect: none; column-count: auto; column-gap: normal; column-rule-color: rgb(0, 0, 0); column-rule-style: none; column-rule-width: 0px; column-span: none; column-width: auto; align-content: normal; align-items: normal; align-self: auto; flex-basis: auto; flex-grow: 0; flex-shrink: 1; flex-direction: row; flex-wrap: nowrap; justify-content: normal; -webkit-font-smoothing: auto; grid-auto-columns: auto; grid-auto-flow: row; grid-auto-rows: auto; grid-column-end: auto; grid-column-start: auto; grid-template-areas: none; grid-template-columns: none; grid-template-rows: none; grid-row-end: auto; grid-row-start: auto; row-gap: normal; -webkit-highlight: none; hyphens: manual; -webkit-hyphenate-character: auto; -webkit-line-break: auto; -webkit-line-clamp: none; -webkit-locale: auto; -webkit-margin-before-collapse: collapse; -webkit-margin-after-collapse: collapse; -webkit-mask-box-image: none; -webkit-mask-box-image-outset: 0px; -webkit-mask-box-image-repeat: stretch; -webkit-mask-box-image-slice: 0 fill; -webkit-mask-box-image-source: none; -webkit-mask-box-image-width: auto; -webkit-mask-clip: border-box; -webkit-mask-composite: source-over; -webkit-mask-image: none; -webkit-mask-origin: border-box; -webkit-mask-position: 0% 0%; -webkit-mask-repeat: repeat; -webkit-mask-size: auto; order: 0; perspective: none; perspective-origin: 57.8438px 24.5px; -webkit-print-color-adjust: economy; -webkit-rtl-ordering: logical; shape-outside: none; shape-image-threshold: 0; shape-margin: 0px; -webkit-tap-highlight-color: rgba(0, 0, 0, 0.18); -webkit-text-combine: none; -webkit-text-decorations-in-effect: none; -webkit-text-emphasis-color: rgb(0, 0, 0); -webkit-text-emphasis-position: over right; -webkit-text-emphasis-style: none; -webkit-text-fill-color: rgb(0, 0, 0); -webkit-text-orientation: vertical-right; -webkit-text-security: none; -webkit-text-stroke-color: rgb(0, 0, 0); -webkit-text-stroke-width: 0px; transform: none; transform-origin: 57.8438px 24.5px; transform-style: flat; -webkit-user-drag: auto; -webkit-user-modify: read-only; user-select: auto; -webkit-writing-mode: horizontal-tb; -webkit-app-region: none; buffered-rendering: auto; clip-path: none; clip-rule: nonzero; mask: none; filter: none; flood-color: rgb(0, 0, 0); flood-opacity: 1; lighting-color: rgb(255, 255, 255); stop-color: rgb(0, 0, 0); stop-opacity: 1; color-interpolation: srgb; color-interpolation-filters: linearrgb; color-rendering: auto; fill: rgb(0, 0, 0); fill-opacity: 1; fill-rule: nonzero; marker-end: none; marker-mid: none; marker-start: none; mask-type: luminance; shape-rendering: auto; stroke: none; stroke-dasharray: none; stroke-dashoffset: 0px; stroke-linecap: butt; stroke-linejoin: miter; stroke-miterlimit: 4; stroke-opacity: 1; stroke-width: 1px; alignment-baseline: auto; baseline-shift: 0px; dominant-baseline: auto; text-anchor: start; writing-mode: horizontal-tb; vector-effect: none; paint-order: fill stroke markers; d: none; cx: 0px; cy: 0px; x: 0px; y: 0px; r: 0px; rx: auto; ry: auto; caret-color: rgb(0, 0, 0); line-break: auto;" version="1.1" xmlns:xlink="http://www.w3.org/1999/xlink"><style type="text/css"></style><svg xmlns="http://www.w3.org/2000/svg" xmlns:dc="http://purl.org/dc/elements/1.1/" xmlns:cc="http://creativecommons.org/ns#" xmlns:rdf="http://www.w3.org/1999/02/22-rdf-syntax-ns#" xmlns:svg="http://www.w3.org/2000/svg" xmlns:sodipodi="http://sodipodi.sourceforge.net/DTD/sodipodi-0.dtd" xmlns:inkscape="http://www.inkscape.org/namespaces/inkscape" viewBox="0 0 30.612291 12.964583" version="1.1" id="svg5659" inkscape:version="0.92.0 r15299" sodipodi:docname="bmc.svg">
  <defs id="defs5653"/>
  <sodipodi:namedview id="base" pagecolor="#ffffff" bordercolor="#666666" borderopacity="1.0" inkscape:pageopacity="0.0" inkscape:pageshadow="2" inkscape:zoom="6.9921535" inkscape:cx="57.349999" inkscape:cy="24" inkscape:document-units="mm" inkscape:current-layer="layer1" showgrid="false" fit-margin-top="0" fit-margin-left="0" fit-margin-right="0" fit-margin-bottom="0" units="px" inkscape:window-width="1280" inkscape:window-height="744" inkscape:window-x="-4" inkscape:window-y="-4" inkscape:window-maximized="1"/>
  <metadata id="metadata5656">
    <rdf:RDF>
      <cc:Work rdf:about="">
        <dc:format>image/svg+xml</dc:format>
        <dc:type rdf:resource="http://purl.org/dc/dcmitype/StillImage"/>
        <dc:title/>
      </cc:Work>
    </rdf:RDF>
  </metadata>
  <g inkscape:label="Layer 1" inkscape:groupmode="layer" id="layer1" transform="translate(-136.77257,-341.79018)">
    <g id="g5689" transform="matrix(0.26458333,0,0,0.26458333,136.64028,341.65789)">
      <g id="g5667">
	<path id="path5661" d="M 47.1,40 H 41.3 V 9.6 h 5.8 v 11.2 c 0.9,-1.1 3,-2.2 5.2,-2.2 6.1,0 9.5,5 9.5,11 0,6 -3.4,10.9 -9.5,10.9 -2.2,0 -4.3,-1.1 -5.2,-2.2 z m 0,-7 c 0.7,1.5 2.2,2.4 3.9,2.4 3.1,0 5,-2.5 5,-5.9 0,-3.4 -1.9,-5.9 -5,-5.9 -1.7,0 -3.3,1 -3.9,2.4 z" inkscape:connector-curvature="0" style="fill:#414042"/>

	<path id="path5663" d="m 87.3,18.6 c 4.3,0 6.9,3 6.9,7.7 V 40 H 88.4 V 27.5 c 0,-2.2 -1,-3.7 -3,-3.7 -1.5,0 -2.9,0.9 -3.2,2.7 V 40 H 76.4 V 27.5 c 0,-2.2 -0.9,-3.7 -2.9,-3.7 -1.5,0 -2.9,0.9 -3.3,2.7 V 40 H 64.4 V 19.1 H 70 v 1.7 c 1,-1.3 3,-2.2 5.3,-2.2 2.5,0 4.4,1.1 5.6,2.7 1.4,-1.5 3.4,-2.7 6.4,-2.7 z" inkscape:connector-curvature="0" style="fill:#414042"/>

	<path id="path5665" d="m 106.5,18.6 c 5.3,0 8.6,3.1 9.2,7.5 H 110 c -0.3,-1.6 -1.6,-2.6 -3.5,-2.6 -2.7,0 -4.3,2.4 -4.3,6 0,3.5 1.6,5.9 4.3,5.9 1.9,0 3.1,-1 3.5,-2.6 h 5.7 c -0.6,4.5 -3.9,7.5 -9.2,7.5 -5.9,0 -10.1,-4.5 -10.1,-10.9 0.1,-6.4 4.2,-10.8 10.1,-10.8 z" inkscape:connector-curvature="0" style="fill:#414042"/>

</g>
      <g id="g5673">
	<g id="g5671">
		<path id="path5669" d="M 4.9,49 C 3,49 1,47.5 1,44.6 V 37.8 C 1,35.1 2.7,32 5.1,30.7 L 14.6,25.1 5.1,19.5 C 2.8,18 1,15 1,12.3 V 5.4 C 1,2.5 3,1 5,1 5.8,1 6.7,1.2 7.5,1.7 l 21.4,12.7 c 1.5,0.9 2.3,2.3 2.3,3.7 0,1.5 -0.9,2.9 -2.3,3.7 l -5.1,3 5.1,3 c 1.5,0.9 2.4,2.3 2.4,3.7 0,1.5 -0.9,2.9 -2.4,3.7 L 7.5,48.3 C 6.6,48.8 5.8,49 4.9,49 Z M 19.2,27.8 7.5,34.7 c -0.9,0.5 -1.8,2.1 -1.8,3.1 v 6.1 L 26,31.9 Z M 5.7,6.2 v 6.1 c 0,1 0.9,2.6 1.8,3.1 l 11.7,6.9 6.9,-4.1 z" inkscape:connector-curvature="0" style="fill:#fe5000"/>

	</g>

</g>
    </g>
  </g>
</svg></svg>