<?xml version="1.0" standalone="no"?>
<!DOCTYPE svg PUBLIC "-//W3C//DTD SVG 20010904//EN"
 "http://www.w3.org/TR/2001/REC-SVG-20010904/DTD/svg10.dtd">
<svg version="1.0" xmlns="http://www.w3.org/2000/svg"
 width="82.000000pt" height="40.000000pt" viewBox="0 0 82.000000 40.000000"
 preserveAspectRatio="xMidYMid meet">
<metadata>
Created by potrace 1.10, written by Peter Selinger 2001-2011
</metadata>
<g transform="translate(0.000000,40.000000) scale(0.100000,-0.100000)"
fill="#000000" stroke="none">
<path d="M206 309 c-115 -33 -128 -187 -21 -239 68 -33 116 -18 171 55 16 20
16 20 9 0 -12 -36 -10 -39 25 -58 40 -20 85 -18 124 8 21 14 24 21 15 36 -6
13 -6 19 1 19 5 0 10 -6 10 -14 0 -18 46 -51 84 -60 63 -15 138 39 152 109 7
42 -18 100 -58 128 -54 40 -167 13 -152 -36 5 -18 1 -17 -22 9 -58 64 -148 64
-199 1 -21 -25 -25 -27 -20 -10 10 37 -61 69 -119 52z m82 -69 c46 -43 15
-130 -47 -130 -65 0 -96 89 -45 129 34 27 64 27 92 1z m206 -5 c31 -29 33 -63
5 -99 -28 -36 -80 -36 -108 0 -28 36 -26 70 5 99 34 32 64 32 98 0z m200 4
c49 -38 20 -129 -41 -129 -44 0 -73 28 -73 71 0 69 60 100 114 58z"/>
</g>
</svg>
